<svg xmlns="http://www.w3.org/2000/svg" xmlns:v="https://svgstorm.com"
viewBox = "0 0 395 330"
width="395"
height="330">
<g fill="None" fill-opacity="0.0" stroke="#FDFDFD" stroke-opacity="1.00" stroke-width="0.3"><path d="
M 0.00 330.00 
L 395.00 330.00
L 395.00 0.00
L 0.00 0.00
L 0.00 330.00
M 253.00 224.00 
C 250.59 223.95 247.70 223.16 246.00 223.00
C 240.34 222.89 234.66 223.00 229.00 223.00
C 225.90 223.00 222.36 222.23 220.00 222.00
C 196.33 222.00 172.69 214.98 150.00 216.00
C 171.74 224.08 198.97 227.86 213.00 249.00
C 195.14 248.09 169.93 251.50 153.92 246.08 C 137.92 240.65 120.45 235.59 104.99 233.01 C 89.53 230.43 65.71 232.03 62.22 213.78 C 58.74 195.52 67.66 180.64 76.77 166.77 C 85.88 152.91 101.36 146.05 118.00 146.00 C 134.64 145.95 147.10 159.18 164.67 161.33 C 182.24 163.48 189.19 138.52 182.22 123.78 C 175.25 109.04 169.10 90.38 171.78 73.78 C 174.46 57.18 180.88 43.27 191.00 30.00
C 193.15 40.18 185.98 56.81 191.92 67.08 C 197.87 77.34 220.16 67.35 227.67 73.33 C 235.18 79.31 231.01 96.61 222.25 103.25 C 213.49 109.89 210.31 119.18 218.30 128.70 C 226.30 138.22 225.09 148.86 229.00 160.00 C 232.91 171.14 231.27 187.56 229.00 199.00
C 240.41 200.48 252.42 202.39 264.00 203.00 C 275.58 203.61 290.42 205.43 302.00 204.00 C 313.58 202.57 330.26 204.49 321.25 216.25 C 312.23 228.00 303.63 223.81 291.00 225.00 C 278.37 226.19 265.58 223.44 253.00 224.00
M 43.00 284.00 
C 39.16 283.01 33.38 281.89 30.00 284.00
C 36.16 282.41 47.87 288.73 42.74 294.74 C 37.61 300.75 23.59 298.25 25.00 291.00
C 29.04 292.49 35.38 292.78 39.00 291.00
C 33.87 291.87 21.36 287.14 25.78 280.78 C 30.20 274.41 44.47 276.83 43.00 284.00
M 72.00 297.00 
C 67.83 301.17 65.79 293.16 67.00 290.00
C 64.76 288.43 59.51 291.18 57.00 290.00
C 57.54 293.98 57.35 298.61 52.00 297.00
C 52.00 290.67 52.00 284.33 52.00 278.00
C 57.33 276.26 57.49 281.08 57.00 285.00
C 67.66 289.27 65.96 278.04 73.00 278.00
C 72.34 284.16 74.32 291.66 72.00 297.00
M 97.00 292.00 
C 98.10 295.89 95.85 297.97 92.00 297.00
C 92.00 290.67 92.00 284.33 92.00 278.00
C 98.23 280.08 108.55 273.82 111.77 282.23 C 114.99 290.64 103.75 294.34 97.00 292.00
M 120.00 297.00 
C 117.35 295.32 118.14 279.42 121.00 278.00
C 130.62 273.24 146.12 282.67 136.00 292.00
C 138.01 292.98 138.64 295.36 140.00 297.00
C 132.19 299.93 132.61 288.27 125.00 291.00
C 125.84 294.93 124.64 298.33 120.00 297.00
M 153.00 290.00 
C 153.81 295.18 163.83 289.24 166.00 293.00
C 166.58 294.00 165.56 295.92 166.00 297.00
C 159.67 297.00 153.33 297.00 147.00 297.00
C 147.00 290.67 147.00 284.33 147.00 278.00
C 153.33 278.00 159.67 278.00 166.00 278.00
C 168.26 286.88 156.56 280.66 153.00 284.00
C 155.43 286.13 159.82 284.47 163.00 285.00
C 165.10 291.97 157.16 289.69 153.00 290.00
M 186.00 283.00 
C 184.61 286.31 188.30 294.91 185.00 297.00
C 183.81 297.75 181.31 296.43 180.00 297.00
C 180.00 292.33 180.00 287.67 180.00 283.00
C 176.02 283.54 171.39 283.35 173.00 278.00
C 179.67 278.00 186.33 278.00 193.00 278.00
C 194.74 283.33 189.92 283.49 186.00 283.00
M 213.00 283.00 
C 215.49 285.97 211.83 304.11 207.00 297.00
C 204.83 293.81 208.63 286.56 207.00 283.00
C 203.02 283.54 198.39 283.35 200.00 278.00
C 206.67 278.00 213.33 278.00 220.00 278.00
C 221.74 283.33 216.92 283.49 213.00 283.00
M 236.00 286.00 
C 239.73 282.99 240.32 275.78 247.00 278.00
C 244.51 284.31 237.11 289.02 239.00 297.00
C 232.24 299.17 234.80 291.06 232.23 287.77 C 229.65 284.48 227.68 281.57 226.00 278.00
C 231.89 276.19 234.01 281.77 236.00 286.00
M 280.00 283.00 
C 277.82 283.41 275.12 282.35 273.00 283.00
C 262.99 288.17 277.31 297.77 284.00 292.00
C 282.60 301.46 264.46 298.30 264.01 287.99 C 263.56 277.69 282.07 272.95 284.00 283.00
C 282.67 283.00 281.33 283.00 280.00 283.00
M 306.00 294.00 
C 304.13 293.46 298.87 293.44 297.00 294.00
C 294.96 294.95 293.65 298.92 290.00 297.00
C 294.27 293.23 294.21 278.49 301.03 278.03 C 307.85 277.56 309.74 292.80 313.00 297.00
C 309.47 298.05 308.20 295.83 306.00 294.00
M 336.00 278.00 
C 337.74 283.33 332.92 283.49 329.00 283.00
C 329.00 287.67 329.00 292.33 329.00 297.00
C 319.76 299.56 323.86 288.33 323.00 283.00
C 319.02 283.54 314.39 283.35 316.00 278.00
C 322.67 278.00 329.33 278.00 336.00 278.00
M 361.00 284.00 
C 357.47 283.09 352.07 281.84 349.00 284.00
C 354.71 282.14 365.85 289.12 360.74 294.74 C 355.64 300.37 341.58 298.53 343.00 291.00
C 347.04 292.49 353.38 292.78 357.00 291.00
C 351.87 291.87 339.36 287.14 343.78 280.78 C 348.20 274.41 362.47 276.83 361.00 284.00
M 143.00 326.00 
C 144.94 318.71 154.98 322.80 162.00 322.00 C 169.02 321.20 177.47 322.57 185.00 322.00 C 192.53 321.43 200.05 322.71 208.00 322.00 C 215.95 321.29 222.43 323.33 231.00 322.00 C 239.57 320.67 246.29 325.58 236.00 326.00 C 225.70 326.42 221.88 325.81 213.00 326.00 C 204.12 326.19 198.28 325.91 190.00 326.00 C 181.72 326.09 175.08 325.96 167.00 326.00 C 158.92 326.04 151.06 325.97 143.00 326.00 Z"/>
</g>
<g fill="None" fill-opacity="0.0" stroke="#26B2FE" stroke-opacity="1.00" stroke-width="0.3"><path d="
M 220.00 222.00 
C 223.10 222.00 226.64 222.77 229.00 223.00
C 234.66 223.00 240.34 222.89 246.00 223.00
C 248.41 223.05 251.30 223.84 253.00 224.00
C 265.58 223.44 278.37 226.19 291.00 225.00 C 303.63 223.81 312.23 228.00 321.25 216.25 C 330.26 204.49 313.58 202.57 302.00 204.00 C 290.42 205.43 275.58 203.61 264.00 203.00 C 252.42 202.39 240.41 200.48 229.00 199.00
C 231.27 187.56 232.91 171.14 229.00 160.00 C 225.09 148.86 226.30 138.22 218.30 128.70 C 210.31 119.18 213.49 109.89 222.25 103.25 C 231.01 96.61 235.18 79.31 227.67 73.33 C 220.16 67.35 197.87 77.34 191.92 67.08 C 185.98 56.81 193.15 40.18 191.00 30.00
C 180.88 43.27 174.46 57.18 171.78 73.78 C 169.10 90.38 175.25 109.04 182.22 123.78 C 189.19 138.52 182.24 163.48 164.67 161.33 C 147.10 159.18 134.64 145.95 118.00 146.00 C 101.36 146.05 85.88 152.91 76.77 166.77 C 67.66 180.64 58.74 195.52 62.22 213.78 C 65.71 232.03 89.53 230.43 104.99 233.01 C 120.45 235.59 137.92 240.65 153.92 246.08 C 169.93 251.50 195.14 248.09 213.00 249.00
C 198.97 227.86 171.74 224.08 150.00 216.00
C 172.69 214.98 196.33 222.00 220.00 222.00 Z"/>
</g>
<g fill="None" fill-opacity="0.0" stroke="#A6E0FF" stroke-opacity="1.00" stroke-width="0.3"><path d="
M 229.00 223.00 
C 226.64 222.77 223.10 222.00 220.00 222.00
C 222.36 222.23 225.90 223.00 229.00 223.00 Z"/>
</g>
<g fill="None" fill-opacity="0.0" stroke="#B2E3FE" stroke-opacity="1.00" stroke-width="0.3"><path d="
M 253.00 224.00 
C 251.30 223.84 248.41 223.05 246.00 223.00
C 247.70 223.16 250.59 223.95 253.00 224.00 Z"/>
</g>
<g fill="None" fill-opacity="0.0" stroke="#030303" stroke-opacity="1.00" stroke-width="0.3"><path d="
M 43.00 284.00 
C 44.47 276.83 30.20 274.41 25.78 280.78 C 21.36 287.14 33.87 291.87 39.00 291.00
C 35.38 292.78 29.04 292.49 25.00 291.00
C 23.59 298.25 37.61 300.75 42.74 294.74 C 47.87 288.73 36.16 282.41 30.00 284.00
C 33.38 281.89 39.16 283.01 43.00 284.00 Z"/>
</g>
<g fill="None" fill-opacity="0.0" stroke="#080808" stroke-opacity="1.00" stroke-width="0.3"><path d="
M 67.00 290.00 
C 69.00 291.40 67.54 294.84 68.00 297.00
C 69.33 297.00 70.67 297.00 72.00 297.00
C 74.32 291.66 72.34 284.16 73.00 278.00
C 65.96 278.04 67.66 289.27 57.00 285.00
C 57.49 281.08 57.33 276.26 52.00 278.00
C 52.00 284.33 52.00 290.67 52.00 297.00
C 57.35 298.61 57.54 293.98 57.00 290.00
C 59.51 291.18 64.76 288.43 67.00 290.00 Z"/>
</g>
<g fill="None" fill-opacity="0.0" stroke="#010101" stroke-opacity="1.00" stroke-width="0.3"><path d="
M 97.00 292.00 
C 103.75 294.34 114.99 290.64 111.77 282.23 C 108.55 273.82 98.23 280.08 92.00 278.00
C 92.00 284.33 92.00 290.67 92.00 297.00
C 95.85 297.97 98.10 295.89 97.00 292.00
M 97.00 287.00 
C 94.94 282.79 103.74 280.63 106.22 283.78 C 108.70 286.93 99.48 287.94 97.00 287.00 Z"/>
</g>
<g fill="None" fill-opacity="0.0" stroke="#656565" stroke-opacity="1.00" stroke-width="0.3"><path d="
M 120.00 297.00 
C 122.09 292.87 116.78 280.98 121.00 278.00
C 118.14 279.42 117.35 295.32 120.00 297.00 Z"/>
</g>
<g fill="None" fill-opacity="0.0" stroke="#010101" stroke-opacity="1.00" stroke-width="0.3"><path d="
M 120.00 297.00 
C 124.64 298.33 125.84 294.93 125.00 291.00
C 132.61 288.27 132.19 299.93 140.00 297.00
C 138.64 295.36 138.01 292.98 136.00 292.00
C 146.12 282.67 130.62 273.24 121.00 278.00
C 116.78 280.98 122.09 292.87 120.00 297.00
M 134.00 283.00 
C 134.84 288.06 127.92 285.28 125.00 286.00
C 124.16 280.94 131.08 283.72 134.00 283.00 Z"/>
</g>
<g fill="None" fill-opacity="0.0" stroke="#0A0A0A" stroke-opacity="1.00" stroke-width="0.3"><path d="
M 166.00 293.00 
C 163.78 294.65 149.32 292.08 153.00 290.00
C 157.16 289.69 165.10 291.97 163.00 285.00
C 159.82 284.47 155.43 286.13 153.00 284.00
C 156.56 280.66 168.26 286.88 166.00 278.00
C 159.67 278.00 153.33 278.00 147.00 278.00
C 147.00 284.33 147.00 290.67 147.00 297.00
C 153.33 297.00 159.67 297.00 166.00 297.00
C 165.56 295.92 166.58 294.00 166.00 293.00 Z"/>
</g>
<g fill="None" fill-opacity="0.0" stroke="#020202" stroke-opacity="1.00" stroke-width="0.3"><path d="
M 185.00 297.00 
C 186.34 293.42 182.77 285.45 186.00 283.00
C 189.92 283.49 194.74 283.33 193.00 278.00
C 186.33 278.00 179.67 278.00 173.00 278.00
C 171.39 283.35 176.02 283.54 180.00 283.00
C 180.00 287.67 180.00 292.33 180.00 297.00
C 181.31 296.43 183.81 297.75 185.00 297.00 Z"/>
</g>
<g fill="None" fill-opacity="0.0" stroke="#000000" stroke-opacity="1.00" stroke-width="0.3"><path d="
M 207.00 297.00 
C 208.67 297.00 210.33 297.00 212.00 297.00
C 212.64 292.50 210.70 286.67 213.00 283.00
C 216.92 283.49 221.74 283.33 220.00 278.00
C 213.33 278.00 206.67 278.00 200.00 278.00
C 198.39 283.35 203.02 283.54 207.00 283.00
C 208.63 286.56 204.83 293.81 207.00 297.00 Z"/>
</g>
<g fill="None" fill-opacity="0.0" stroke="#070707" stroke-opacity="1.00" stroke-width="0.3"><path d="
M 236.00 286.00 
C 234.01 281.77 231.89 276.19 226.00 278.00
C 227.68 281.57 229.65 284.48 232.23 287.77 C 234.80 291.06 232.24 299.17 239.00 297.00
C 237.11 289.02 244.51 284.31 247.00 278.00
C 240.32 275.78 239.73 282.99 236.00 286.00 Z"/>
</g>
<g fill="None" fill-opacity="0.0" stroke="#070707" stroke-opacity="1.00" stroke-width="0.3"><path d="
M 273.00 283.00 
C 275.66 281.63 277.99 283.23 280.00 283.00
C 281.33 283.00 282.67 283.00 284.00 283.00
C 282.07 272.95 263.56 277.69 264.01 287.99 C 264.46 298.30 282.60 301.46 284.00 292.00
C 277.31 297.77 262.99 288.17 273.00 283.00 Z"/>
</g>
<g fill="None" fill-opacity="0.0" stroke="#030303" stroke-opacity="1.00" stroke-width="0.3"><path d="
M 297.00 294.00 
C 299.88 292.65 303.17 292.72 306.00 294.00
C 308.20 295.83 309.47 298.05 313.00 297.00
C 309.74 292.80 307.85 277.56 301.03 278.03 C 294.21 278.49 294.27 293.23 290.00 297.00
C 293.65 298.92 294.96 294.95 297.00 294.00
M 302.00 283.00 
C 304.34 286.41 304.41 290.46 299.00 289.00
C 299.40 286.89 300.38 284.34 302.00 283.00 Z"/>
</g>
<g fill="None" fill-opacity="0.0" stroke="#050505" stroke-opacity="1.00" stroke-width="0.3"><path d="
M 336.00 278.00 
C 329.33 278.00 322.67 278.00 316.00 278.00
C 314.39 283.35 319.02 283.54 323.00 283.00
C 323.86 288.33 319.76 299.56 329.00 297.00
C 329.00 292.33 329.00 287.67 329.00 283.00
C 332.92 283.49 337.74 283.33 336.00 278.00 Z"/>
</g>
<g fill="None" fill-opacity="0.0" stroke="#080808" stroke-opacity="1.00" stroke-width="0.3"><path d="
M 361.00 284.00 
C 362.47 276.83 348.20 274.41 343.78 280.78 C 339.36 287.14 351.87 291.87 357.00 291.00
C 353.38 292.78 347.04 292.49 343.00 291.00
C 341.58 298.53 355.64 300.37 360.74 294.74 C 365.85 289.12 354.71 282.14 349.00 284.00
C 352.07 281.84 357.47 283.09 361.00 284.00 Z"/>
</g>
<g fill="None" fill-opacity="0.0" stroke="#858585" stroke-opacity="1.00" stroke-width="0.3"><path d="
M 273.00 283.00 
C 275.12 282.35 277.82 283.41 280.00 283.00
C 277.99 283.23 275.66 281.63 273.00 283.00 Z"/>
</g>
<g fill="None" fill-opacity="0.0" stroke="#E8E8E8" stroke-opacity="1.00" stroke-width="0.3"><path d="
M 97.00 287.00 
C 99.48 287.94 108.70 286.93 106.22 283.78 C 103.74 280.63 94.94 282.79 97.00 287.00 Z"/>
</g>
<g fill="None" fill-opacity="0.0" stroke="#E8E8E8" stroke-opacity="1.00" stroke-width="0.3"><path d="
M 134.00 283.00 
C 131.08 283.72 124.16 280.94 125.00 286.00
C 127.92 285.28 134.84 288.06 134.00 283.00 Z"/>
</g>
<g fill="None" fill-opacity="0.0" stroke="#6C6C6C" stroke-opacity="1.00" stroke-width="0.3"><path d="
M 185.00 297.00 
C 188.30 294.91 184.61 286.31 186.00 283.00
C 182.77 285.45 186.34 293.42 185.00 297.00 Z"/>
</g>
<g fill="None" fill-opacity="0.0" stroke="#8A8A8A" stroke-opacity="1.00" stroke-width="0.3"><path d="
M 207.00 297.00 
C 211.83 304.11 215.49 285.97 213.00 283.00
C 210.70 286.67 212.64 292.50 212.00 297.00
C 210.33 297.00 208.67 297.00 207.00 297.00 Z"/>
</g>
<g fill="None" fill-opacity="0.0" stroke="#DDDDDD" stroke-opacity="1.00" stroke-width="0.3"><path d="
M 302.00 283.00 
C 300.38 284.34 299.40 286.89 299.00 289.00
C 304.41 290.46 304.34 286.41 302.00 283.00 Z"/>
</g>
<g fill="None" fill-opacity="0.0" stroke="#8B8B8B" stroke-opacity="1.00" stroke-width="0.3"><path d="
M 72.00 297.00 
C 70.67 297.00 69.33 297.00 68.00 297.00
C 67.54 294.84 69.00 291.40 67.00 290.00
C 65.79 293.16 67.83 301.17 72.00 297.00 Z"/>
</g>
<g fill="None" fill-opacity="0.0" stroke="#707070" stroke-opacity="1.00" stroke-width="0.3"><path d="
M 166.00 293.00 
C 163.83 289.24 153.81 295.18 153.00 290.00
C 149.32 292.08 163.78 294.65 166.00 293.00 Z"/>
</g>
<g fill="None" fill-opacity="0.0" stroke="#656565" stroke-opacity="1.00" stroke-width="0.3"><path d="
M 297.00 294.00 
C 298.87 293.44 304.13 293.46 306.00 294.00
C 303.17 292.72 299.88 292.65 297.00 294.00 Z"/>
</g>
<g fill="None" fill-opacity="0.0" stroke="#46BBFD" stroke-opacity="1.00" stroke-width="0.3"><path d="
M 143.00 326.00 
C 151.06 325.97 158.92 326.04 167.00 326.00 C 175.08 325.96 181.72 326.09 190.00 326.00 C 198.28 325.91 204.12 326.19 213.00 326.00 C 221.88 325.81 225.70 326.42 236.00 326.00 C 246.29 325.58 239.57 320.67 231.00 322.00 C 222.43 323.33 215.95 321.29 208.00 322.00 C 200.05 322.71 192.53 321.43 185.00 322.00 C 177.47 322.57 169.02 321.20 162.00 322.00 C 154.98 322.80 144.94 318.71 143.00 326.00 Z"/>
</g>
<g fill="#FDFDFD" fill-opacity="1.00" stroke="None">
<path d="
M 0.00 330.00 
L 395.00 330.00
L 395.00 0.00
L 0.00 0.00
L 0.00 330.00
M 253.00 224.00 
C 250.59 223.95 247.70 223.16 246.00 223.00
C 240.34 222.89 234.66 223.00 229.00 223.00
C 225.90 223.00 222.36 222.23 220.00 222.00
C 196.33 222.00 172.69 214.98 150.00 216.00
C 171.74 224.08 198.97 227.86 213.00 249.00
C 195.14 248.09 169.93 251.50 153.92 246.08 C 137.92 240.65 120.45 235.59 104.99 233.01 C 89.53 230.43 65.71 232.03 62.22 213.78 C 58.74 195.52 67.66 180.64 76.77 166.77 C 85.88 152.91 101.36 146.05 118.00 146.00 C 134.64 145.95 147.10 159.18 164.67 161.33 C 182.24 163.48 189.19 138.52 182.22 123.78 C 175.25 109.04 169.10 90.38 171.78 73.78 C 174.46 57.18 180.88 43.27 191.00 30.00
C 193.15 40.18 185.98 56.81 191.92 67.08 C 197.87 77.34 220.16 67.35 227.67 73.33 C 235.18 79.31 231.01 96.61 222.25 103.25 C 213.49 109.89 210.31 119.18 218.30 128.70 C 226.30 138.22 225.09 148.86 229.00 160.00 C 232.91 171.14 231.27 187.56 229.00 199.00
C 240.41 200.48 252.42 202.39 264.00 203.00 C 275.58 203.61 290.42 205.43 302.00 204.00 C 313.58 202.57 330.26 204.49 321.25 216.25 C 312.23 228.00 303.63 223.81 291.00 225.00 C 278.37 226.19 265.58 223.44 253.00 224.00
M 43.00 284.00 
C 39.16 283.01 33.38 281.89 30.00 284.00
C 36.16 282.41 47.87 288.73 42.74 294.74 C 37.61 300.75 23.59 298.25 25.00 291.00
C 29.04 292.49 35.38 292.78 39.00 291.00
C 33.87 291.87 21.36 287.14 25.78 280.78 C 30.20 274.41 44.47 276.83 43.00 284.00
M 72.00 297.00 
C 67.83 301.17 65.79 293.16 67.00 290.00
C 64.76 288.43 59.51 291.18 57.00 290.00
C 57.54 293.98 57.35 298.61 52.00 297.00
C 52.00 290.67 52.00 284.33 52.00 278.00
C 57.33 276.26 57.49 281.08 57.00 285.00
C 67.66 289.27 65.96 278.04 73.00 278.00
C 72.34 284.16 74.32 291.66 72.00 297.00
M 97.00 292.00 
C 98.10 295.89 95.85 297.97 92.00 297.00
C 92.00 290.67 92.00 284.33 92.00 278.00
C 98.23 280.08 108.55 273.82 111.77 282.23 C 114.99 290.64 103.75 294.34 97.00 292.00
M 120.00 297.00 
C 117.35 295.32 118.14 279.42 121.00 278.00
C 130.62 273.24 146.12 282.67 136.00 292.00
C 138.01 292.98 138.64 295.36 140.00 297.00
C 132.19 299.93 132.61 288.27 125.00 291.00
C 125.84 294.93 124.64 298.33 120.00 297.00
M 153.00 290.00 
C 153.81 295.18 163.83 289.24 166.00 293.00
C 166.58 294.00 165.56 295.92 166.00 297.00
C 159.67 297.00 153.33 297.00 147.00 297.00
C 147.00 290.67 147.00 284.33 147.00 278.00
C 153.33 278.00 159.67 278.00 166.00 278.00
C 168.26 286.88 156.56 280.66 153.00 284.00
C 155.43 286.13 159.82 284.47 163.00 285.00
C 165.10 291.97 157.16 289.69 153.00 290.00
M 186.00 283.00 
C 184.61 286.31 188.30 294.91 185.00 297.00
C 183.81 297.75 181.31 296.43 180.00 297.00
C 180.00 292.33 180.00 287.67 180.00 283.00
C 176.02 283.54 171.39 283.35 173.00 278.00
C 179.67 278.00 186.33 278.00 193.00 278.00
C 194.74 283.33 189.92 283.49 186.00 283.00
M 213.00 283.00 
C 215.49 285.97 211.83 304.11 207.00 297.00
C 204.83 293.81 208.63 286.56 207.00 283.00
C 203.02 283.54 198.39 283.35 200.00 278.00
C 206.67 278.00 213.33 278.00 220.00 278.00
C 221.74 283.33 216.92 283.49 213.00 283.00
M 236.00 286.00 
C 239.73 282.99 240.32 275.78 247.00 278.00
C 244.51 284.31 237.11 289.02 239.00 297.00
C 232.24 299.17 234.80 291.06 232.23 287.77 C 229.65 284.48 227.68 281.57 226.00 278.00
C 231.89 276.19 234.01 281.77 236.00 286.00
M 280.00 283.00 
C 277.82 283.41 275.12 282.35 273.00 283.00
C 262.99 288.17 277.31 297.77 284.00 292.00
C 282.60 301.46 264.46 298.30 264.01 287.99 C 263.56 277.69 282.07 272.95 284.00 283.00
C 282.67 283.00 281.33 283.00 280.00 283.00
M 306.00 294.00 
C 304.13 293.46 298.87 293.44 297.00 294.00
C 294.96 294.95 293.65 298.92 290.00 297.00
C 294.27 293.23 294.21 278.49 301.03 278.03 C 307.85 277.56 309.74 292.80 313.00 297.00
C 309.47 298.05 308.20 295.83 306.00 294.00
M 336.00 278.00 
C 337.74 283.33 332.92 283.49 329.00 283.00
C 329.00 287.67 329.00 292.33 329.00 297.00
C 319.76 299.56 323.86 288.33 323.00 283.00
C 319.02 283.54 314.39 283.35 316.00 278.00
C 322.67 278.00 329.33 278.00 336.00 278.00
M 361.00 284.00 
C 357.47 283.09 352.07 281.84 349.00 284.00
C 354.71 282.14 365.85 289.12 360.74 294.74 C 355.64 300.37 341.58 298.53 343.00 291.00
C 347.04 292.49 353.38 292.78 357.00 291.00
C 351.87 291.87 339.36 287.14 343.78 280.78 C 348.20 274.41 362.47 276.83 361.00 284.00
M 143.00 326.00 
C 144.94 318.71 154.98 322.80 162.00 322.00 C 169.02 321.20 177.47 322.57 185.00 322.00 C 192.53 321.43 200.05 322.71 208.00 322.00 C 215.95 321.29 222.43 323.33 231.00 322.00 C 239.57 320.67 246.29 325.58 236.00 326.00 C 225.70 326.42 221.88 325.81 213.00 326.00 C 204.12 326.19 198.28 325.91 190.00 326.00 C 181.72 326.09 175.08 325.96 167.00 326.00 C 158.92 326.04 151.06 325.97 143.00 326.00 Z"/>
</g>
<g fill="#26B2FE" fill-opacity="1.00" stroke="None">
<path d="
M 220.00 222.00 
C 223.10 222.00 226.64 222.77 229.00 223.00
C 234.66 223.00 240.34 222.89 246.00 223.00
C 248.41 223.05 251.30 223.84 253.00 224.00
C 265.58 223.44 278.37 226.19 291.00 225.00 C 303.63 223.81 312.23 228.00 321.25 216.25 C 330.26 204.49 313.58 202.57 302.00 204.00 C 290.42 205.43 275.58 203.61 264.00 203.00 C 252.42 202.39 240.41 200.48 229.00 199.00
C 231.27 187.56 232.91 171.14 229.00 160.00 C 225.09 148.86 226.30 138.22 218.30 128.70 C 210.31 119.18 213.49 109.89 222.25 103.25 C 231.01 96.61 235.18 79.31 227.67 73.33 C 220.16 67.35 197.87 77.34 191.92 67.08 C 185.98 56.81 193.15 40.18 191.00 30.00
C 180.88 43.27 174.46 57.18 171.78 73.78 C 169.10 90.38 175.25 109.04 182.22 123.78 C 189.19 138.52 182.24 163.48 164.67 161.33 C 147.10 159.18 134.64 145.95 118.00 146.00 C 101.36 146.05 85.88 152.91 76.77 166.77 C 67.66 180.64 58.74 195.52 62.22 213.78 C 65.71 232.03 89.53 230.43 104.99 233.01 C 120.45 235.59 137.92 240.65 153.92 246.08 C 169.93 251.50 195.14 248.09 213.00 249.00
C 198.97 227.86 171.74 224.08 150.00 216.00
C 172.69 214.98 196.33 222.00 220.00 222.00 Z"/>
</g>
<g fill="#A6E0FF" fill-opacity="1.00" stroke="None">
<path d="
M 229.00 223.00 
C 226.64 222.77 223.10 222.00 220.00 222.00
C 222.36 222.23 225.90 223.00 229.00 223.00 Z"/>
</g>
<g fill="#B2E3FE" fill-opacity="1.00" stroke="None">
<path d="
M 253.00 224.00 
C 251.30 223.84 248.41 223.05 246.00 223.00
C 247.70 223.16 250.59 223.95 253.00 224.00 Z"/>
</g>
<g fill="#030303" fill-opacity="1.00" stroke="None">
<path d="
M 43.00 284.00 
C 44.47 276.83 30.20 274.41 25.78 280.78 C 21.36 287.14 33.87 291.87 39.00 291.00
C 35.38 292.78 29.04 292.49 25.00 291.00
C 23.59 298.25 37.61 300.75 42.74 294.74 C 47.87 288.73 36.16 282.41 30.00 284.00
C 33.38 281.89 39.16 283.01 43.00 284.00 Z"/>
</g>
<g fill="#080808" fill-opacity="1.00" stroke="None">
<path d="
M 67.00 290.00 
C 69.00 291.40 67.54 294.84 68.00 297.00
C 69.33 297.00 70.67 297.00 72.00 297.00
C 74.32 291.66 72.34 284.16 73.00 278.00
C 65.96 278.04 67.66 289.27 57.00 285.00
C 57.49 281.08 57.33 276.26 52.00 278.00
C 52.00 284.33 52.00 290.67 52.00 297.00
C 57.35 298.61 57.54 293.98 57.00 290.00
C 59.51 291.18 64.76 288.43 67.00 290.00 Z"/>
</g>
<g fill="#010101" fill-opacity="1.00" stroke="None">
<path d="
M 97.00 292.00 
C 103.75 294.34 114.99 290.64 111.77 282.23 C 108.55 273.82 98.23 280.08 92.00 278.00
C 92.00 284.33 92.00 290.67 92.00 297.00
C 95.85 297.97 98.10 295.89 97.00 292.00
M 97.00 287.00 
C 94.94 282.79 103.74 280.63 106.22 283.78 C 108.70 286.93 99.48 287.94 97.00 287.00 Z"/>
</g>
<g fill="#656565" fill-opacity="1.00" stroke="None">
<path d="
M 120.00 297.00 
C 122.09 292.87 116.78 280.98 121.00 278.00
C 118.14 279.42 117.35 295.32 120.00 297.00 Z"/>
</g>
<g fill="#010101" fill-opacity="1.00" stroke="None">
<path d="
M 120.00 297.00 
C 124.64 298.33 125.84 294.93 125.00 291.00
C 132.61 288.27 132.19 299.93 140.00 297.00
C 138.64 295.36 138.01 292.98 136.00 292.00
C 146.12 282.67 130.62 273.24 121.00 278.00
C 116.78 280.98 122.09 292.87 120.00 297.00
M 134.00 283.00 
C 134.84 288.06 127.92 285.28 125.00 286.00
C 124.16 280.94 131.08 283.72 134.00 283.00 Z"/>
</g>
<g fill="#0A0A0A" fill-opacity="1.00" stroke="None">
<path d="
M 166.00 293.00 
C 163.78 294.65 149.32 292.08 153.00 290.00
C 157.16 289.69 165.10 291.97 163.00 285.00
C 159.82 284.47 155.43 286.13 153.00 284.00
C 156.56 280.66 168.26 286.88 166.00 278.00
C 159.67 278.00 153.33 278.00 147.00 278.00
C 147.00 284.33 147.00 290.67 147.00 297.00
C 153.33 297.00 159.67 297.00 166.00 297.00
C 165.56 295.92 166.58 294.00 166.00 293.00 Z"/>
</g>
<g fill="#020202" fill-opacity="1.00" stroke="None">
<path d="
M 185.00 297.00 
C 186.34 293.42 182.77 285.45 186.00 283.00
C 189.92 283.49 194.74 283.33 193.00 278.00
C 186.33 278.00 179.67 278.00 173.00 278.00
C 171.39 283.35 176.02 283.54 180.00 283.00
C 180.00 287.67 180.00 292.33 180.00 297.00
C 181.31 296.43 183.81 297.75 185.00 297.00 Z"/>
</g>
<g fill="#000000" fill-opacity="1.00" stroke="None">
<path d="
M 207.00 297.00 
C 208.67 297.00 210.33 297.00 212.00 297.00
C 212.64 292.50 210.70 286.67 213.00 283.00
C 216.92 283.49 221.74 283.33 220.00 278.00
C 213.33 278.00 206.67 278.00 200.00 278.00
C 198.39 283.35 203.02 283.54 207.00 283.00
C 208.63 286.56 204.83 293.81 207.00 297.00 Z"/>
</g>
<g fill="#070707" fill-opacity="1.00" stroke="None">
<path d="
M 236.00 286.00 
C 234.01 281.77 231.89 276.19 226.00 278.00
C 227.68 281.57 229.65 284.48 232.23 287.77 C 234.80 291.06 232.24 299.17 239.00 297.00
C 237.11 289.02 244.51 284.31 247.00 278.00
C 240.32 275.78 239.73 282.99 236.00 286.00 Z"/>
</g>
<g fill="#070707" fill-opacity="1.00" stroke="None">
<path d="
M 273.00 283.00 
C 275.66 281.63 277.99 283.23 280.00 283.00
C 281.33 283.00 282.67 283.00 284.00 283.00
C 282.07 272.95 263.56 277.69 264.01 287.99 C 264.46 298.30 282.60 301.46 284.00 292.00
C 277.31 297.77 262.99 288.17 273.00 283.00 Z"/>
</g>
<g fill="#030303" fill-opacity="1.00" stroke="None">
<path d="
M 297.00 294.00 
C 299.88 292.65 303.17 292.72 306.00 294.00
C 308.20 295.83 309.47 298.05 313.00 297.00
C 309.74 292.80 307.85 277.56 301.03 278.03 C 294.21 278.49 294.27 293.23 290.00 297.00
C 293.65 298.92 294.96 294.95 297.00 294.00
M 302.00 283.00 
C 304.34 286.41 304.41 290.46 299.00 289.00
C 299.40 286.89 300.38 284.34 302.00 283.00 Z"/>
</g>
<g fill="#050505" fill-opacity="1.00" stroke="None">
<path d="
M 336.00 278.00 
C 329.33 278.00 322.67 278.00 316.00 278.00
C 314.39 283.35 319.02 283.54 323.00 283.00
C 323.86 288.33 319.76 299.56 329.00 297.00
C 329.00 292.33 329.00 287.67 329.00 283.00
C 332.92 283.49 337.74 283.33 336.00 278.00 Z"/>
</g>
<g fill="#080808" fill-opacity="1.00" stroke="None">
<path d="
M 361.00 284.00 
C 362.47 276.83 348.20 274.41 343.78 280.78 C 339.36 287.14 351.87 291.87 357.00 291.00
C 353.38 292.78 347.04 292.49 343.00 291.00
C 341.58 298.53 355.64 300.37 360.74 294.74 C 365.85 289.12 354.71 282.14 349.00 284.00
C 352.07 281.84 357.47 283.09 361.00 284.00 Z"/>
</g>
<g fill="#858585" fill-opacity="1.00" stroke="None">
<path d="
M 273.00 283.00 
C 275.12 282.35 277.82 283.41 280.00 283.00
C 277.99 283.23 275.66 281.63 273.00 283.00 Z"/>
</g>
<g fill="#E8E8E8" fill-opacity="1.00" stroke="None">
<path d="
M 97.00 287.00 
C 99.48 287.94 108.70 286.93 106.22 283.78 C 103.74 280.63 94.94 282.79 97.00 287.00 Z"/>
</g>
<g fill="#E8E8E8" fill-opacity="1.00" stroke="None">
<path d="
M 134.00 283.00 
C 131.08 283.72 124.16 280.94 125.00 286.00
C 127.92 285.28 134.84 288.06 134.00 283.00 Z"/>
</g>
<g fill="#6C6C6C" fill-opacity="1.00" stroke="None">
<path d="
M 185.00 297.00 
C 188.30 294.91 184.61 286.31 186.00 283.00
C 182.77 285.45 186.34 293.42 185.00 297.00 Z"/>
</g>
<g fill="#8A8A8A" fill-opacity="1.00" stroke="None">
<path d="
M 207.00 297.00 
C 211.83 304.11 215.49 285.97 213.00 283.00
C 210.70 286.67 212.64 292.50 212.00 297.00
C 210.33 297.00 208.67 297.00 207.00 297.00 Z"/>
</g>
<g fill="#DDDDDD" fill-opacity="1.00" stroke="None">
<path d="
M 302.00 283.00 
C 300.38 284.34 299.40 286.89 299.00 289.00
C 304.41 290.46 304.34 286.41 302.00 283.00 Z"/>
</g>
<g fill="#8B8B8B" fill-opacity="1.00" stroke="None">
<path d="
M 72.00 297.00 
C 70.67 297.00 69.33 297.00 68.00 297.00
C 67.54 294.84 69.00 291.40 67.00 290.00
C 65.79 293.16 67.83 301.17 72.00 297.00 Z"/>
</g>
<g fill="#707070" fill-opacity="1.00" stroke="None">
<path d="
M 166.00 293.00 
C 163.83 289.24 153.81 295.18 153.00 290.00
C 149.32 292.08 163.78 294.65 166.00 293.00 Z"/>
</g>
<g fill="#656565" fill-opacity="1.00" stroke="None">
<path d="
M 297.00 294.00 
C 298.87 293.44 304.13 293.46 306.00 294.00
C 303.17 292.72 299.88 292.65 297.00 294.00 Z"/>
</g>
<g fill="#46BBFD" fill-opacity="1.00" stroke="None">
<path d="
M 143.00 326.00 
C 151.06 325.97 158.92 326.04 167.00 326.00 C 175.08 325.96 181.72 326.09 190.00 326.00 C 198.28 325.91 204.12 326.19 213.00 326.00 C 221.88 325.81 225.70 326.42 236.00 326.00 C 246.29 325.58 239.57 320.67 231.00 322.00 C 222.43 323.33 215.95 321.29 208.00 322.00 C 200.05 322.71 192.53 321.43 185.00 322.00 C 177.47 322.57 169.02 321.20 162.00 322.00 C 154.98 322.80 144.94 318.71 143.00 326.00 Z"/>
</g>
</svg>