<svg data-v-0dd9719b="" version="1.0" xmlns="http://www.w3.org/2000/svg" xmlns:xlink="http://www.w3.org/1999/xlink" width="100%" height="100%" viewBox="0 0 340.000000 250.000000" preserveAspectRatio="xMidYMid meet" color-interpolation-filters="sRGB" style="margin: auto;"> <rect data-v-0dd9719b="" x="0" y="0" width="100%" height="100%" fill="#fdfcfa" fill-opacity="1" class="background"></rect> <rect data-v-0dd9719b="" x="0" y="0" width="100%" height="100%" fill="url(#watermark)" fill-opacity="1" class="watermarklayer"></rect> <g data-v-0dd9719b="" fill="#b887a4" class="icon-text-wrapper icon-svg-group iconsvg" transform="translate(47.66215515136719,97.39678764343262)"><g class="iconsvg-imagesvg" transform="translate(0,0)"><g><rect fill="#b887a4" fill-opacity="0" stroke-width="2" x="0" y="0" width="60" height="55.20642602798966" class="image-rect"></rect> <svg filter="url(#colors9729467549)" x="0" y="0" width="60" height="55.20642602798966" filtersec="colorsf7450271460" class="image-svg-svg primary" style="overflow: visible;"><svg xmlns="http://www.w3.org/2000/svg" xmlns:xlink="http://www.w3.org/1999/xlink" version="1.1" x="0px" y="0px" viewBox="25 30.899986267089844 150.1999969482422 138.20001220703125" xml:space="preserve"><g><path d="M171.3,161.5l-142.5,0c-2.1,0-3.8,1.7-3.8,3.8s1.7,3.8,3.8,3.8l142.5,0c2.1,0,3.8-1.7,3.8-3.8S173.3,161.5,171.3,161.5z"></path><path d="M46.4,155.9c1.5,1.5,3.8,1.5,5.3,0c1.5-1.5,1.5-3.8,0-5.3c-5.9-5.9-10.6-12.8-13.9-20.5c-3.5-8.1-5.3-16.8-5.3-25.7   c0-8.9,1.8-17.5,5.3-25.7c3.4-7.9,8.3-14.9,14.5-21c6.2-6.1,13.4-10.8,21.5-14.2c8.3-3.4,17.2-5.2,26.3-5.2c0,0,0,0,0,0   c9.1,0,18,1.7,26.3,5.2c8,3.3,15.3,8.1,21.5,14.2c6.2,6.1,11.1,13.1,14.4,21c3.5,8.1,5.3,16.8,5.3,25.7c0,8.9-1.8,17.5-5.3,25.7   c-3.3,7.6-8,14.5-13.9,20.4c-1.5,1.5-1.5,3.8,0,5.3c0.7,0.7,1.7,1.1,2.7,1.1c1,0,1.9-0.4,2.7-1.1c6.6-6.6,11.8-14.3,15.5-22.8   c3.9-9.1,5.9-18.7,5.9-28.6c0-9.9-2-19.6-5.9-28.6c-3.8-8.8-9.2-16.6-16.1-23.4c-6.9-6.7-14.9-12-23.8-15.7   c-9.2-3.8-19.1-5.8-29.2-5.8c0,0,0,0,0,0c-10.1,0-19.9,1.9-29.2,5.8c-8.9,3.7-16.9,9-23.8,15.7c-6.9,6.7-12.3,14.6-16.1,23.4   C27,84.9,25,94.6,25,104.5c0,9.9,2,19.6,5.9,28.6C34.6,141.6,39.8,149.3,46.4,155.9z"></path><path d="M72.7,72.6l0-5.7l0.1,0.1c1,0.8,2.3,1,3.4,0.6c3.2-1,6.8-1,10,0c1.2,0.4,2.5,0.2,3.4-0.6l0.1-0.1l0,5.7   c0,0.4,0.1,0.9,0.2,1.3l1.7,4.8l-2.6,3.1c0,0-0.1,0.1-0.1,0.2c-0.1,0.1-0.2,0.2-0.2,0.3c-0.1,0.1-0.1,0.2-0.2,0.3   c-0.1,0.1-0.1,0.2-0.1,0.3c0,0.1-0.1,0.2-0.1,0.4c0,0.1-0.1,0.2-0.1,0.3c0,0.1,0,0.3,0,0.4c0,0.1,0,0.1,0,0.2l0,8.3   c0,0.1,0,0.3,0,0.4c0.7,6.9,3.2,13.5,7.4,19.1c3.4,4.6,5,10.3,4.4,16c0,0.3-0.1,1-0.5,2.5c-0.4,2,0.8,4,2.9,4.5   c0.3,0.1,0.5,0.1,0.8,0.1c1.7,0,3.3-1.2,3.7-2.9c0.3-1.4,0.5-2.5,0.6-3.3c0.8-7.5-1.3-15.1-5.8-21.2c-3.3-4.5-5.4-9.7-5.9-15.2   l0-6.8l2.4-2.9c1.3-1.5,1.6-3.6,1-5.5L97.2,72l0-12.7c0-1.4-0.8-2.7-2.1-3.4c-1.3-0.6-2.8-0.5-3.9,0.4l-4.7,3.6   c-3.5-0.8-7.1-0.8-10.6,0l-4.7-3.6c-1.1-0.9-2.7-1-3.9-0.4c-1.3,0.6-2.1,1.9-2.1,3.4l0,12.7l-1.9,5.2c-0.7,1.9-0.3,4,1,5.5l2.4,2.9   l0,6.7c-0.6,5.5-2.7,10.8-6,15.3c-4.5,6.2-6.6,13.7-5.8,21.2c0.5,4.4,1.9,8.6,4.2,12.4c1.3,2.1,2.9,3.9,4.8,5.4   c0.7,0.5,1.5,0.8,2.3,0.8c1.1,0,2.2-0.5,3-1.5c1.3-1.6,1-4-0.7-5.3c-1.2-0.9-2.2-2.1-3-3.4c-1.7-2.9-2.8-6-3.1-9.4   c-0.6-5.6,0.9-11.3,4.4-16c4.1-5.6,6.7-12.3,7.4-19.1c0-0.1,0-0.3,0-0.4l0-8.3c0-0.9-0.3-1.7-0.9-2.4l-2.6-3.1l1.7-4.8   C72.6,73.5,72.7,73.1,72.7,72.6z"></path><path d="M129.9,111.5c2.1,0,3.8-1.7,3.8-3.8v-9.3c0-5.5-4.5-9.9-9.9-9.9s-9.9,4.5-9.9,9.9v37.2c0,7.7-6.2,13.9-13.9,13.9   S86,143.3,86,135.6v-4.4c0-2.1-1.7-3.8-3.8-3.8s-3.8,1.7-3.8,3.8v4.4c0,11.8,9.6,21.4,21.4,21.4s21.4-9.6,21.4-21.4V98.4   c0-1.3,1.1-2.4,2.4-2.4s2.4,1.1,2.4,2.4v9.3C126.1,109.8,127.8,111.5,129.9,111.5z"></path></g></svg></svg> <defs><filter id="colors9729467549"><feColorMatrix type="matrix" values="0 0 0 0 0.71875  0 0 0 0 0.52734375  0 0 0 0 0.640625  0 0 0 1 0" class="icon-fecolormatrix"></feColorMatrix></filter> <filter id="colorsf7450271460"><feColorMatrix type="matrix" values="0 0 0 0 0.99609375  0 0 0 0 0.99609375  0 0 0 0 0.99609375  0 0 0 1 0" class="icon-fecolormatrix"></feColorMatrix></filter> <filter id="colorsb8514611675"><feColorMatrix type="matrix" values="0 0 0 0 0  0 0 0 0 0  0 0 0 0 0  0 0 0 1 0" class="icon-fecolormatrix"></feColorMatrix></filter></defs></g></g> <g transform="translate(67,2.395212173461914)"><g data-gra="path-name" fill-rule="" class="tp-name iconsvg-namesvg" transform="translate(0,0)"><g transform="scale(1)"><g><path d="M2.69-20.28C2.69-11.61 17.79-11.53 17.79-4.84 17.79-2.4 16.32-0.46 13.38-0.46 9.93-0.46 7.78-4.63 6.48-9.34-1.43-6.06 1.72 0.42 12.66 0.42 20.7 0.42 24.1-3.24 24.1-7.61 24.1-16.03 9.46-14.77 9.34-22.29 9.3-24.82 10.43-26.88 12.87-26.88 15.48-26.88 17.2-22.84 18.26-18.89 26.04-19.94 25.11-27.76 12.87-27.76 6.81-27.76 2.69-24.61 2.69-20.28ZM27.93-27.34C28.94-26.54 28.9-25.79 28.9-24.57L28.9-3.49C28.9-1.64 29.28 0 31.25 0L36.26 0C35.25-0.8 35.29-1.56 35.29-2.78L35.29-12.33 45.01-12.33 45.01-3.49C45.01-1.64 45.39 0 47.37 0L52.37 0C51.36-0.8 51.4-1.56 51.4-2.78L51.4-23.85C51.4-25.7 51.03-27.34 49.05-27.34L44.04-27.34C45.05-26.54 45.01-25.79 45.01-24.57L45.01-13.92 35.29-13.92 35.29-23.85C35.29-25.7 34.91-27.34 32.94-27.34ZM67.01-27.34C68.02-26.54 67.98-25.79 67.98-24.57L67.98-3.49C67.98-1.64 68.36 0 70.33 0L75.34 0C74.33-0.8 74.37-1.56 74.37-2.78L74.37-10.1 77.86-10.1C85.06-10.1 89.89-12.45 89.89-18.72 89.89-25.74 83.96-27.34 78.07-27.34ZM76.77-26.33C81.1-26.33 83.08-23.14 83.08-18.64 83.08-14.13 80.68-11.53 76.69-11.53L74.37-11.53 74.37-23.85C74.37-24.78 74.29-25.7 73.91-26.33ZM91.91-19.06C92.97-18.26 92.92-17.46 92.92-16.2L92.92-3.07C92.92-1.18 93.34 0 95.36 0L99.95 0C98.9-0.84 98.98-1.6 98.98-2.86L98.98-9.3C99.07-12.24 100.5-14.18 102.18-14.39 102.3-14.39 102.39-14.43 102.51-14.43 103.99-14.43 105.5-13.21 106.43-11.36 109.29-15.35 107.69-19.39 103.99-19.39 101.67-19.39 99.95-17.5 98.98-14.64L98.98-15.99C98.98-17.92 98.52-19.06 96.5-19.06ZM109.33-9.72C109.33-3.58 113.66 0.34 120.6 0.34 124.43 0.34 126.58-0.93 128.13-3.58L126.45-4.96C124.77-1.94 123-0.29 120.77-0.29 116.35-0.29 115.77-6.94 115.77-10.14L128.81-10.14C129.18-15.61 126.16-19.39 119.89-19.39 113.41-19.39 109.33-15.23 109.33-9.72ZM115.81-11.32C116.02-15.35 117.03-18.8 119.43-18.8 122.03-18.8 122.71-14.72 122.71-11.32ZM132.93-17.88L132.93-3.79C132.93-1.05 135.49 0.42 138.14 0.42 140.54 0.42 142.94-0.84 143.4-3.49 142.73-2.82 141.85-2.36 141.05-2.36 139.91-2.36 138.94-3.24 138.94-5.72L138.94-17.88 142.6-17.88 142.6-19.06 138.94-19.06 138.94-22.46C138.94-24.4 138.52-25.53 136.46-25.53L131.92-25.53C132.97-24.69 132.93-23.94 132.93-22.72L132.93-19.06 130.24-19.06 130.24-17.88ZM147.4-17.88L147.4-3.79C147.4-1.05 149.96 0.42 152.62 0.42 155.01 0.42 157.41-0.84 157.87-3.49 157.2-2.82 156.32-2.36 155.52-2.36 154.38-2.36 153.41-3.24 153.41-5.72L153.41-17.88 157.07-17.88 157.07-19.06 153.41-19.06 153.41-22.46C153.41-24.4 152.99-25.53 150.93-25.53L146.39-25.53C147.44-24.69 147.4-23.94 147.4-22.72L147.4-19.06 144.71-19.06 144.71-17.88ZM158.84-19.06C159.89-18.26 160.31-16.62 160.73-15.4L165.02-3.45C165.78-1.01 166.88-0.04 169.02 0L169.65 0.97C168.89 2.4 167.59 3.11 166.12 3.11 165.02 3.11 163.76 2.69 162.54 1.89 161.83 4.75 162.5 8.5 165.74 8.5 167.13 8.5 168.94 7.61 170.54 3.66L179.75-19.06 175.41-19.06 171.33-4.21 166.58-17.46C166.29-18.42 165.61-19.06 164.39-19.06Z" transform="translate(-2.0743188858032227, 27.760000228881836)"></path></g> <!----> <!----> <!----> <!----> <!----> <!----> <!----></g></g> <g data-gra="path-slogan" fill-rule="" class="tp-slogan iconsvg-slogansvg" fill="#b887a4" transform="translate(76.7478380203247,42.26000213623047)"><!----> <!----> <g transform="scale(1, 1)"><g transform="scale(1)"><path d="M0.62-3.94C0.62-3.30 0.71-2.72 0.88-2.21C1.05-1.71 1.29-1.28 1.60-0.93C1.91-0.58 2.27-0.32 2.69-0.13C3.11 0.05 3.57 0.14 4.07 0.14C4.57 0.14 5.02 0.04 5.41-0.16C5.80-0.36 6.16-0.64 6.47-1.00L5.90-1.61C5.65-1.33 5.38-1.11 5.09-0.96C4.81-0.81 4.48-0.73 4.09-0.73C3.72-0.73 3.38-0.81 3.08-0.96C2.78-1.11 2.52-1.33 2.32-1.61C2.11-1.89 1.95-2.23 1.83-2.62C1.71-3.02 1.66-3.46 1.66-3.96C1.66-4.45 1.72-4.89 1.84-5.28C1.96-5.67 2.12-6.01 2.34-6.28C2.56-6.56 2.82-6.77 3.12-6.92C3.42-7.07 3.76-7.14 4.14-7.14C4.48-7.14 4.77-7.07 5.02-6.94C5.27-6.81 5.50-6.63 5.71-6.41L6.28-7.04C6.04-7.30 5.75-7.53 5.39-7.72C5.03-7.92 4.61-8.02 4.13-8.02C3.62-8.02 3.16-7.92 2.73-7.73C2.30-7.55 1.93-7.28 1.62-6.92C1.31-6.57 1.06-6.14 0.89-5.64C0.71-5.14 0.62-4.57 0.62-3.94ZM11.28-3.20L8.92-3.20L9.29-4.40C9.43-4.84 9.57-5.28 9.70-5.72C9.82-6.15 9.95-6.60 10.07-7.06L10.12-7.06C10.24-6.60 10.37-6.15 10.50-5.72C10.63-5.28 10.76-4.84 10.91-4.40ZM11.53-2.40L12.28 0L13.34 0L10.68-7.87L9.55-7.87L6.89 0L7.91 0L8.66-2.40ZM15.61-7.03L15.61 0L16.62 0L16.62-7.03L19.00-7.03L19.00-7.87L13.24-7.87L13.24-7.03ZM19.97-1.72L19.37-1.02C19.71-0.66 20.12-0.38 20.59-0.17C21.06 0.04 21.58 0.14 22.13 0.14C22.54 0.14 22.92 0.09 23.24-0.03C23.57-0.15 23.85-0.31 24.08-0.51C24.32-0.71 24.49-0.95 24.62-1.22C24.74-1.50 24.80-1.79 24.80-2.10C24.80-2.39 24.76-2.64 24.68-2.86C24.59-3.08 24.48-3.27 24.34-3.44C24.19-3.60 24.02-3.75 23.82-3.87C23.62-3.99 23.41-4.10 23.18-4.20L22.07-4.68C21.91-4.74 21.75-4.81 21.60-4.89C21.45-4.97 21.31-5.05 21.18-5.15C21.05-5.25 20.95-5.37 20.87-5.50C20.80-5.63 20.76-5.80 20.76-5.99C20.76-6.35 20.89-6.63 21.16-6.83C21.43-7.04 21.78-7.14 22.22-7.14C22.59-7.14 22.92-7.07 23.21-6.94C23.51-6.81 23.77-6.63 24.01-6.40L24.55-7.04C24.27-7.33 23.93-7.57 23.53-7.75C23.13-7.93 22.70-8.02 22.22-8.02C21.86-8.02 21.53-7.96 21.23-7.86C20.93-7.76 20.67-7.61 20.45-7.42C20.23-7.23 20.06-7.01 19.94-6.76C19.81-6.50 19.75-6.22 19.75-5.93C19.75-5.64 19.80-5.39 19.90-5.17C19.99-4.95 20.12-4.76 20.27-4.60C20.42-4.44 20.59-4.30 20.78-4.19C20.98-4.08 21.16-3.98 21.35-3.90L22.48-3.41C22.66-3.32 22.83-3.24 22.99-3.16C23.15-3.08 23.29-2.99 23.41-2.89C23.52-2.79 23.61-2.67 23.68-2.53C23.75-2.39 23.78-2.22 23.78-2.02C23.78-1.63 23.64-1.32 23.35-1.09C23.06-0.85 22.66-0.73 22.14-0.73C21.73-0.73 21.34-0.82 20.96-1.00C20.58-1.18 20.25-1.42 19.97-1.72Z" transform="translate(-0.624, 8.016)"></path></g></g></g></g></g><defs v-gra="od"></defs></svg>  